<mxfile host="app.diagrams.net" modified="2024-03-21T05:37:31.752Z" agent="Mozilla/5.0 (Windows NT 10.0; Win64; x64) AppleWebKit/537.36 (KHTML, like Gecko) Chrome/122.0.0.0 Safari/537.36" etag="T0Ae5I4gzeQvZzQs1Zyd" version="24.0.1" type="device">
  <diagram name="Страница — 1" id="WW1w3oulA2zxEJCOXZJz">
    <mxGraphModel dx="2972" dy="1560" grid="1" gridSize="10" guides="1" tooltips="1" connect="1" arrows="1" fold="1" page="1" pageScale="1" pageWidth="1169" pageHeight="827" math="0" shadow="0">
      <root>
        <mxCell id="0" />
        <mxCell id="1" parent="0" />
        <mxCell id="0CzeAaO3jM6ZB3Wj2UqS-3" style="edgeStyle=orthogonalEdgeStyle;rounded=0;orthogonalLoop=1;jettySize=auto;html=1;entryX=0.5;entryY=0;entryDx=0;entryDy=0;" edge="1" parent="1" source="0CzeAaO3jM6ZB3Wj2UqS-1" target="0CzeAaO3jM6ZB3Wj2UqS-2">
          <mxGeometry relative="1" as="geometry" />
        </mxCell>
        <mxCell id="0CzeAaO3jM6ZB3Wj2UqS-1" value="" style="ellipse;whiteSpace=wrap;html=1;aspect=fixed;fillColor=#000000;" vertex="1" parent="1">
          <mxGeometry x="240" y="10" width="50" height="50" as="geometry" />
        </mxCell>
        <mxCell id="0CzeAaO3jM6ZB3Wj2UqS-5" style="edgeStyle=orthogonalEdgeStyle;rounded=0;orthogonalLoop=1;jettySize=auto;html=1;entryX=0.5;entryY=0;entryDx=0;entryDy=0;" edge="1" parent="1" source="0CzeAaO3jM6ZB3Wj2UqS-2" target="0CzeAaO3jM6ZB3Wj2UqS-4">
          <mxGeometry relative="1" as="geometry" />
        </mxCell>
        <mxCell id="0CzeAaO3jM6ZB3Wj2UqS-2" value="Формирование работы" style="rounded=1;whiteSpace=wrap;html=1;" vertex="1" parent="1">
          <mxGeometry x="205" y="120" width="120" height="60" as="geometry" />
        </mxCell>
        <mxCell id="0CzeAaO3jM6ZB3Wj2UqS-8" style="edgeStyle=orthogonalEdgeStyle;rounded=0;orthogonalLoop=1;jettySize=auto;html=1;entryX=0.5;entryY=0;entryDx=0;entryDy=0;" edge="1" parent="1" source="0CzeAaO3jM6ZB3Wj2UqS-4" target="0CzeAaO3jM6ZB3Wj2UqS-7">
          <mxGeometry relative="1" as="geometry" />
        </mxCell>
        <mxCell id="0CzeAaO3jM6ZB3Wj2UqS-4" value="" style="rhombus;whiteSpace=wrap;html=1;" vertex="1" parent="1">
          <mxGeometry x="225" y="240" width="80" height="80" as="geometry" />
        </mxCell>
        <mxCell id="0CzeAaO3jM6ZB3Wj2UqS-13" style="edgeStyle=orthogonalEdgeStyle;rounded=0;orthogonalLoop=1;jettySize=auto;html=1;entryX=0.5;entryY=0;entryDx=0;entryDy=0;" edge="1" parent="1" source="0CzeAaO3jM6ZB3Wj2UqS-7" target="0CzeAaO3jM6ZB3Wj2UqS-12">
          <mxGeometry relative="1" as="geometry" />
        </mxCell>
        <mxCell id="0CzeAaO3jM6ZB3Wj2UqS-7" value="Инициирование работы" style="rounded=1;whiteSpace=wrap;html=1;" vertex="1" parent="1">
          <mxGeometry x="205" y="380" width="120" height="60" as="geometry" />
        </mxCell>
        <mxCell id="0CzeAaO3jM6ZB3Wj2UqS-9" value="" style="endArrow=classic;html=1;rounded=0;exitX=0;exitY=0.5;exitDx=0;exitDy=0;" edge="1" parent="1" source="0CzeAaO3jM6ZB3Wj2UqS-4">
          <mxGeometry width="50" height="50" relative="1" as="geometry">
            <mxPoint x="80" y="290" as="sourcePoint" />
            <mxPoint x="265" y="210" as="targetPoint" />
            <Array as="points">
              <mxPoint x="80" y="280" />
              <mxPoint x="80" y="250" />
              <mxPoint x="80" y="210" />
            </Array>
          </mxGeometry>
        </mxCell>
        <mxCell id="0CzeAaO3jM6ZB3Wj2UqS-10" value="Студент записался на работу" style="text;html=1;align=center;verticalAlign=middle;whiteSpace=wrap;rounded=0;" vertex="1" parent="1">
          <mxGeometry x="265" y="329" width="95" height="30" as="geometry" />
        </mxCell>
        <mxCell id="0CzeAaO3jM6ZB3Wj2UqS-11" value="Студент не записался на работу" style="text;html=1;align=center;verticalAlign=middle;whiteSpace=wrap;rounded=0;" vertex="1" parent="1">
          <mxGeometry x="110" y="240" width="95" height="30" as="geometry" />
        </mxCell>
        <mxCell id="0CzeAaO3jM6ZB3Wj2UqS-15" style="edgeStyle=orthogonalEdgeStyle;rounded=0;orthogonalLoop=1;jettySize=auto;html=1;entryX=0.5;entryY=0;entryDx=0;entryDy=0;" edge="1" parent="1" source="0CzeAaO3jM6ZB3Wj2UqS-12" target="0CzeAaO3jM6ZB3Wj2UqS-14">
          <mxGeometry relative="1" as="geometry" />
        </mxCell>
        <mxCell id="0CzeAaO3jM6ZB3Wj2UqS-17" style="edgeStyle=orthogonalEdgeStyle;rounded=0;orthogonalLoop=1;jettySize=auto;html=1;entryX=0.5;entryY=0;entryDx=0;entryDy=0;" edge="1" parent="1" source="0CzeAaO3jM6ZB3Wj2UqS-12" target="0CzeAaO3jM6ZB3Wj2UqS-16">
          <mxGeometry relative="1" as="geometry" />
        </mxCell>
        <mxCell id="0CzeAaO3jM6ZB3Wj2UqS-12" value="" style="rhombus;whiteSpace=wrap;html=1;" vertex="1" parent="1">
          <mxGeometry x="225" y="500" width="80" height="80" as="geometry" />
        </mxCell>
        <mxCell id="0CzeAaO3jM6ZB3Wj2UqS-21" style="edgeStyle=orthogonalEdgeStyle;rounded=0;orthogonalLoop=1;jettySize=auto;html=1;entryX=0.5;entryY=0;entryDx=0;entryDy=0;" edge="1" parent="1" source="0CzeAaO3jM6ZB3Wj2UqS-14" target="0CzeAaO3jM6ZB3Wj2UqS-20">
          <mxGeometry relative="1" as="geometry" />
        </mxCell>
        <mxCell id="0CzeAaO3jM6ZB3Wj2UqS-23" style="edgeStyle=orthogonalEdgeStyle;rounded=0;orthogonalLoop=1;jettySize=auto;html=1;entryX=0.5;entryY=0;entryDx=0;entryDy=0;" edge="1" parent="1" source="0CzeAaO3jM6ZB3Wj2UqS-14" target="0CzeAaO3jM6ZB3Wj2UqS-22">
          <mxGeometry relative="1" as="geometry" />
        </mxCell>
        <mxCell id="0CzeAaO3jM6ZB3Wj2UqS-14" value="" style="rhombus;whiteSpace=wrap;html=1;" vertex="1" parent="1">
          <mxGeometry x="225" y="640" width="80" height="80" as="geometry" />
        </mxCell>
        <mxCell id="0CzeAaO3jM6ZB3Wj2UqS-27" style="edgeStyle=orthogonalEdgeStyle;rounded=0;orthogonalLoop=1;jettySize=auto;html=1;entryX=0;entryY=0.5;entryDx=0;entryDy=0;" edge="1" parent="1" source="0CzeAaO3jM6ZB3Wj2UqS-16" target="0CzeAaO3jM6ZB3Wj2UqS-26">
          <mxGeometry relative="1" as="geometry">
            <Array as="points">
              <mxPoint x="70" y="1075" />
            </Array>
          </mxGeometry>
        </mxCell>
        <mxCell id="0CzeAaO3jM6ZB3Wj2UqS-16" value="Студенту выставлено 0 баллов" style="rounded=1;whiteSpace=wrap;html=1;" vertex="1" parent="1">
          <mxGeometry x="10" y="650" width="120" height="60" as="geometry" />
        </mxCell>
        <mxCell id="0CzeAaO3jM6ZB3Wj2UqS-18" value="Студент не выполнил работу" style="text;html=1;align=center;verticalAlign=middle;whiteSpace=wrap;rounded=0;" vertex="1" parent="1">
          <mxGeometry x="100" y="500" width="95" height="30" as="geometry" />
        </mxCell>
        <mxCell id="0CzeAaO3jM6ZB3Wj2UqS-19" value="Студент выполнил работу" style="text;html=1;align=center;verticalAlign=middle;whiteSpace=wrap;rounded=0;" vertex="1" parent="1">
          <mxGeometry x="270" y="590" width="95" height="30" as="geometry" />
        </mxCell>
        <mxCell id="0CzeAaO3jM6ZB3Wj2UqS-28" style="edgeStyle=orthogonalEdgeStyle;rounded=0;orthogonalLoop=1;jettySize=auto;html=1;entryX=0.5;entryY=0;entryDx=0;entryDy=0;" edge="1" parent="1" source="0CzeAaO3jM6ZB3Wj2UqS-20" target="0CzeAaO3jM6ZB3Wj2UqS-26">
          <mxGeometry relative="1" as="geometry" />
        </mxCell>
        <mxCell id="0CzeAaO3jM6ZB3Wj2UqS-20" value="Студенту выставлены баллы" style="rounded=1;whiteSpace=wrap;html=1;" vertex="1" parent="1">
          <mxGeometry x="205" y="860" width="120" height="60" as="geometry" />
        </mxCell>
        <mxCell id="0CzeAaO3jM6ZB3Wj2UqS-29" style="edgeStyle=orthogonalEdgeStyle;rounded=0;orthogonalLoop=1;jettySize=auto;html=1;entryX=1;entryY=0.5;entryDx=0;entryDy=0;" edge="1" parent="1" source="0CzeAaO3jM6ZB3Wj2UqS-22" target="0CzeAaO3jM6ZB3Wj2UqS-26">
          <mxGeometry relative="1" as="geometry">
            <Array as="points">
              <mxPoint x="500" y="1075" />
            </Array>
          </mxGeometry>
        </mxCell>
        <mxCell id="0CzeAaO3jM6ZB3Wj2UqS-22" value="Студенту выставлены баллы" style="rounded=1;whiteSpace=wrap;html=1;" vertex="1" parent="1">
          <mxGeometry x="440" y="860" width="120" height="60" as="geometry" />
        </mxCell>
        <mxCell id="0CzeAaO3jM6ZB3Wj2UqS-24" value="Студент выполнил работу полностью" style="text;html=1;align=center;verticalAlign=middle;whiteSpace=wrap;rounded=0;" vertex="1" parent="1">
          <mxGeometry x="270" y="760" width="120" height="30" as="geometry" />
        </mxCell>
        <mxCell id="0CzeAaO3jM6ZB3Wj2UqS-25" value="Студент выполнил работу частично" style="text;html=1;align=center;verticalAlign=middle;whiteSpace=wrap;rounded=0;" vertex="1" parent="1">
          <mxGeometry x="510" y="760" width="120" height="30" as="geometry" />
        </mxCell>
        <mxCell id="0CzeAaO3jM6ZB3Wj2UqS-26" value="" style="ellipse;whiteSpace=wrap;html=1;aspect=fixed;fillColor=#000000;" vertex="1" parent="1">
          <mxGeometry x="240" y="1050" width="50" height="50" as="geometry" />
        </mxCell>
      </root>
    </mxGraphModel>
  </diagram>
</mxfile>
